<mxfile host="65bd71144e">
    <diagram id="XhfFoNYuqW-YS9Xsj_76" name="PÃ¡gina-1">
        <mxGraphModel dx="1704" dy="1862" grid="1" gridSize="10" guides="1" tooltips="1" connect="1" arrows="1" fold="1" page="1" pageScale="1" pageWidth="827" pageHeight="1169" math="0" shadow="0">
            <root>
                <mxCell id="0"/>
                <mxCell id="1" parent="0"/>
                <mxCell id="32" value="" style="group" vertex="1" connectable="0" parent="1">
                    <mxGeometry x="-150" y="-280" width="380" height="300" as="geometry"/>
                </mxCell>
                <mxCell id="29" value="" style="whiteSpace=wrap;html=1;rounded=0;hachureGap=4;fontFamily=Architects Daughter;fontSource=https%3A%2F%2Ffonts.googleapis.com%2Fcss%3Ffamily%3DArchitects%2BDaughter;fontSize=20;" vertex="1" parent="32">
                    <mxGeometry width="380" height="300" as="geometry"/>
                </mxCell>
                <mxCell id="31" value="Controler" style="text;html=1;align=center;verticalAlign=middle;resizable=0;points=[];autosize=1;strokeColor=default;fillColor=none;fontSize=12;fontFamily=Helvetica;hachureGap=4;" vertex="1" parent="32">
                    <mxGeometry width="70" height="30" as="geometry"/>
                </mxCell>
                <mxCell id="22" value="" style="group" vertex="1" connectable="0" parent="1">
                    <mxGeometry x="159" y="80" width="531" height="380" as="geometry"/>
                </mxCell>
                <mxCell id="20" value="" style="whiteSpace=wrap;html=1;strokeColor=default;" vertex="1" parent="22">
                    <mxGeometry width="531" height="380" as="geometry"/>
                </mxCell>
                <mxCell id="21" value="Repository" style="text;html=1;align=center;verticalAlign=middle;resizable=0;points=[];autosize=1;strokeColor=default;fillColor=none;" vertex="1" parent="22">
                    <mxGeometry width="80" height="30" as="geometry"/>
                </mxCell>
                <mxCell id="3" value="Banco de dados" style="aspect=fixed;html=1;points=[];align=center;image;fontSize=12;image=img/lib/azure2/databases/Azure_Database_PostgreSQL_Server.svg;" vertex="1" parent="1">
                    <mxGeometry x="730" y="290" width="48" height="64" as="geometry"/>
                </mxCell>
                <mxCell id="14" style="edgeStyle=none;html=1;" edge="1" parent="1" source="4" target="11">
                    <mxGeometry relative="1" as="geometry"/>
                </mxCell>
                <mxCell id="24" value="Implementa" style="edgeLabel;html=1;align=center;verticalAlign=middle;resizable=0;points=[];" vertex="1" connectable="0" parent="14">
                    <mxGeometry x="0.3143" y="-2" relative="1" as="geometry">
                        <mxPoint x="-32" y="-18" as="offset"/>
                    </mxGeometry>
                </mxCell>
                <mxCell id="4" value="DestinoRepository" style="html=1;" vertex="1" parent="1">
                    <mxGeometry x="200" y="176" width="150" height="66" as="geometry"/>
                </mxCell>
                <mxCell id="15" style="edgeStyle=none;html=1;entryX=0.5;entryY=0;entryDx=0;entryDy=0;" edge="1" parent="1" source="5" target="11">
                    <mxGeometry relative="1" as="geometry"/>
                </mxCell>
                <mxCell id="23" value="Implementa" style="edgeLabel;html=1;align=center;verticalAlign=middle;resizable=0;points=[];" vertex="1" connectable="0" parent="15">
                    <mxGeometry x="-0.1775" y="3" relative="1" as="geometry">
                        <mxPoint as="offset"/>
                    </mxGeometry>
                </mxCell>
                <mxCell id="5" value="DepoimentosRepository" style="html=1;" vertex="1" parent="1">
                    <mxGeometry x="440" y="176" width="170" height="70" as="geometry"/>
                </mxCell>
                <mxCell id="13" style="edgeStyle=none;html=1;" edge="1" parent="1" source="11" target="3">
                    <mxGeometry relative="1" as="geometry"/>
                </mxCell>
                <mxCell id="11" value="PanacheRepository" style="html=1;" vertex="1" parent="1">
                    <mxGeometry x="490" y="340" width="150" height="66" as="geometry"/>
                </mxCell>
                <mxCell id="17" value="" style="group" vertex="1" connectable="0" parent="1">
                    <mxGeometry x="410" y="-220" width="400" height="260" as="geometry"/>
                </mxCell>
                <mxCell id="10" value="" style="whiteSpace=wrap;html=1;" vertex="1" parent="17">
                    <mxGeometry width="400" height="260" as="geometry"/>
                </mxCell>
                <mxCell id="16" value="Domain" style="text;html=1;align=center;verticalAlign=middle;resizable=0;points=[];autosize=1;strokeColor=default;fillColor=none;" vertex="1" parent="17">
                    <mxGeometry width="60" height="30" as="geometry"/>
                </mxCell>
                <mxCell id="8" value="DestinoEntity" style="html=1;" vertex="1" parent="17">
                    <mxGeometry x="60" y="60" width="110" height="50" as="geometry"/>
                </mxCell>
                <mxCell id="9" value="DepoimentoEntity" style="html=1;" vertex="1" parent="17">
                    <mxGeometry x="60" y="160" width="110" height="50" as="geometry"/>
                </mxCell>
                <mxCell id="18" style="edgeStyle=orthogonalEdgeStyle;html=1;entryX=0;entryY=0.75;entryDx=0;entryDy=0;" edge="1" parent="1" source="4" target="8">
                    <mxGeometry relative="1" as="geometry">
                        <mxPoint x="360" y="130" as="sourcePoint"/>
                        <Array as="points">
                            <mxPoint x="310" y="-122"/>
                        </Array>
                    </mxGeometry>
                </mxCell>
                <mxCell id="19" style="edgeStyle=none;html=1;entryX=0.25;entryY=1;entryDx=0;entryDy=0;" edge="1" parent="1" source="5" target="9">
                    <mxGeometry relative="1" as="geometry"/>
                </mxCell>
                <mxCell id="25" value="DestinoResource" style="whiteSpace=wrap;html=1;strokeColor=default;" vertex="1" parent="1">
                    <mxGeometry x="-110" y="-200" width="120" height="60" as="geometry"/>
                </mxCell>
                <mxCell id="26" value="DepoimentoResource" style="whiteSpace=wrap;html=1;strokeColor=default;" vertex="1" parent="1">
                    <mxGeometry x="10" y="-90" width="120" height="60" as="geometry"/>
                </mxCell>
            </root>
        </mxGraphModel>
    </diagram>
</mxfile>